<?xml version="1.0" encoding="UTF-8"?>
<svg width="30px" height="21px" viewBox="0 0 30 21" version="1.1" xmlns="http://www.w3.org/2000/svg" xmlns:xlink="http://www.w3.org/1999/xlink">
    <!-- Generator: sketchtool 50.2 (55047) - http://www.bohemiancoding.com/sketch -->
    <title>C4DCD21D-98DF-4D7A-B3F8-7456BB9F9330</title>
    <desc>Created with sketchtool.</desc>
    <defs></defs>
    <g id="Курсы-валют-new" stroke="none" stroke-width="1" fill="none" fill-rule="evenodd">
        <g id="Курсы-валют-new-Desktop-" transform="translate(-67.000000, -303.000000)">
            <g id="Page-1-Copy-58" transform="translate(67.000000, 303.000000)">
                <polygon id="Fill-1" fill="#003399" points="0 21.0001354 30 21.0001354 30 0.000135416667 0 0.000135416667"></polygon>
                <polygon id="Fill-2" fill="#FFCC00" points="14.7477391 2.91132292 14.979913 3.63173958 15.7103478 3.63173958 15.1194783 4.09892708 15.3542609 4.80444792 14.7477391 4.36163542 14.1542609 4.80444792 14.3851304 4.09892708 13.7903478 3.62226042 14.529913 3.62632292"></polygon>
                <polygon id="Fill-3" fill="#FFCC00" points="11.6728696 3.77758333 11.9063478 4.498 12.6367826 4.498 12.045913 4.9651875 12.2806957 5.66935417 11.6728696 5.22789583 11.0806957 5.66935417 11.3102609 4.9651875 10.7154783 4.48716667 11.4550435 4.49258333"></polygon>
                <polygon id="Fill-4" fill="#FFCC00" points="9.43617391 6.08779167 9.66834783 6.80685417 10.3987826 6.80685417 9.80921739 7.27404167 10.044 7.9795625 9.43617391 7.53675 8.844 7.9795625 9.07356522 7.27404167 8.47878261 6.797375 9.21834783 6.8014375"></polygon>
                <polygon id="Fill-5" fill="#FFCC00" points="8.63113043 9.25897917 8.86330435 9.97939583 9.59373913 9.97939583 9.00286957 10.4465833 9.23765217 11.15075 8.63113043 10.7092917 8.03765217 11.15075 8.26721739 10.4465833 7.67243478 9.9685625 8.412 9.97397917"></polygon>
                <polygon id="Fill-6" fill="#FFCC00" points="9.44243478 12.4512917 9.6746087 13.1703542 10.4050435 13.1703542 9.81547826 13.6375417 10.0502609 14.3430625 9.44243478 13.90025 8.85026087 14.3430625 9.07982609 13.6375417 8.48504348 13.160875 9.2246087 13.1649375"></polygon>
                <polygon id="Fill-7" fill="#FFCC00" points="11.6805652 14.7471458 11.9114348 15.4675625 12.6418696 15.4675625 12.0523043 15.93475 12.287087 16.6389167 11.6805652 16.1961042 11.087087 16.6389167 11.3166522 15.93475 10.7218696 15.4567292 11.4614348 15.4621458"></polygon>
                <polygon id="Fill-8" fill="#FFCC00" points="17.8316087 3.77758333 17.5981304 4.498 16.869 4.498 17.4585652 4.9651875 17.2237826 5.66935417 17.8316087 5.22789583 18.4237826 5.66935417 18.1942174 4.9651875 18.789 4.48716667 18.0494348 4.49258333"></polygon>
                <polygon id="Fill-9" fill="#FFCC00" points="20.0671304 6.08779167 19.8362609 6.80685417 19.1058261 6.80685417 19.6953913 7.27404167 19.4606087 7.9795625 20.0671304 7.53675 20.6606087 7.9795625 20.4310435 7.27404167 21.0258261 6.797375 20.2862609 6.8014375"></polygon>
                <polygon id="Fill-10" fill="#FFCC00" points="20.8733478 9.25897917 20.6411739 9.97939583 19.9107391 9.97939583 20.5016087 10.4465833 20.2668261 11.15075 20.8733478 10.7092917 21.4668261 11.15075 21.2372609 10.4465833 21.8320435 9.9685625 21.0924783 9.97397917"></polygon>
                <polygon id="Fill-11" fill="#FFCC00" points="20.061913 12.4512917 19.8297391 13.1703542 19.0993043 13.1703542 19.6888696 13.6375417 19.454087 14.3430625 20.061913 13.90025 20.654087 14.3430625 20.4245217 13.6375417 21.0193043 13.160875 20.2797391 13.1649375"></polygon>
                <polygon id="Fill-12" fill="#FFCC00" points="17.8252174 14.7471458 17.5917391 15.4675625 16.8613043 15.4675625 17.4521739 15.93475 17.2173913 16.6389167 17.8252174 16.1961042 18.4173913 16.6389167 18.1878261 15.93475 18.7826087 15.4567292 18.0430435 15.4621458"></polygon>
                <polygon id="Fill-13" fill="#FFCC00" points="14.7452609 15.6159792 14.9774348 16.3363958 15.7078696 16.3363958 15.1183043 16.8035833 15.3517826 17.50775 14.7452609 17.0662917 14.153087 17.50775 14.3826522 16.8035833 13.7878696 16.3255625 14.5274348 16.3309792"></polygon>
            </g>
        </g>
    </g>
</svg>