<?xml version="1.0" encoding="UTF-8"?>
<svg width="30px" height="20px" viewBox="0 0 30 20" version="1.1" xmlns="http://www.w3.org/2000/svg" xmlns:xlink="http://www.w3.org/1999/xlink">
    <!-- Generator: sketchtool 50.2 (55047) - http://www.bohemiancoding.com/sketch -->
    <title>5E320419-68FB-46FA-AAA1-5930E8EF27CF</title>
    <desc>Created with sketchtool.</desc>
    <defs></defs>
    <g id="Курсы-валют-new" stroke="none" stroke-width="1" fill="none" fill-rule="evenodd">
        <g id="Курсы-валют-new-Desktop-" transform="translate(-67.000000, -226.000000)">
            <g id="Group-9-Copy" transform="translate(67.000000, 226.000000)">
                <g id="Group-7">
                    <path d="M0,1.78863809 L29.3233083,1.78863809 L29.3233083,0.281045752 L0,0.281045752 L0,1.78863809 Z M0,4.80382276 L29.3233083,4.80382276 L29.3233083,3.29623042 L0,3.29623042 L0,4.80382276 Z M0,7.81900743 L29.3233083,7.81900743 L29.3233083,6.31141509 L0,6.31141509 L0,7.81900743 Z M0,10.8341921 L29.3233083,10.8341921 L29.3233083,9.32659976 L0,9.32659976 L0,10.8341921 Z M0,13.8506764 L29.3233083,13.8506764 L29.3233083,12.3430841 L0,12.3430841 L0,13.8506764 Z M0,16.8658611 L29.3233083,16.8658611 L29.3233083,15.3582687 L0,15.3582687 L0,16.8658611 Z M0,19.8810458 L29.3233083,19.8810458 L29.3233083,18.3721538 L0,18.3721538 L0,19.8810458 Z" id="Fill-2" fill="#FF1612"></path>
                    <polygon id="Fill-3" fill="#0437A0" points="0 10.8177979 14.828107 10.8177979 14.828107 0.279764706 0 0.279764706"></polygon>
                    <path d="M13.4582342,1.20877908 L13.0209719,1.20749804 L13.375439,1.4611451 L13.2396031,1.87236078 L13.5927764,1.61743268 L13.9459498,1.87236078 L13.8088202,1.4611451 L14.1632873,1.20749804 L13.726025,1.20877908 L13.5927764,0.796282353 L13.4582342,1.20877908 Z M10.9860206,1.20877908 L10.550052,1.20749804 L10.9032253,1.4611451 L10.7673894,1.87236078 L11.1205628,1.61743268 L11.4737362,1.87236078 L11.3379003,1.4611451 L11.6923673,1.20749804 L11.2538114,1.20877908 L11.1205628,0.796282353 L10.9860206,1.20877908 Z M8.51510062,1.20877908 L8.07783835,1.20749804 L8.4323054,1.4611451 L8.29646948,1.87236078 L8.64834918,1.61743268 L9.00281623,1.87236078 L8.86568664,1.4611451 L9.22015369,1.20749804 L8.78289142,1.20877908 L8.64834918,0.796282353 L8.51510062,1.20877908 Z M6.04418067,1.20877908 L5.6069184,1.20749804 L5.96009177,1.4611451 L5.82554954,1.87236078 L6.17742923,1.61743268 L6.53189628,1.87236078 L6.39606037,1.4611451 L6.74923375,1.20749804 L6.31197147,1.20877908 L6.17742923,0.796282353 L6.04418067,1.20877908 Z M3.57326073,1.20877908 L3.13599845,1.20749804 L3.48917183,1.4611451 L3.35333591,1.87236078 L3.70650929,1.61743268 L4.05968266,1.87236078 L3.92384675,1.4611451 L4.27702012,1.20749804 L3.84105153,1.20877908 L3.70650929,0.796282353 L3.57326073,1.20877908 Z M1.1010471,1.20877908 L0.66378483,1.20749804 L1.0169582,1.4611451 L0.881122291,1.87236078 L1.23558934,1.61743268 L1.58746904,1.87236078 L1.4529268,1.4611451 L1.80739385,1.20749804 L1.3688379,1.20877908 L1.23558934,0.796282353 L1.1010471,1.20877908 Z M12.2214805,2.24770719 L11.7855119,2.24386405 L12.1386853,2.49879216 L12.0041431,2.91000784 L12.3573165,2.65507974 L12.7091962,2.91000784 L12.5733602,2.49879216 L12.9278273,2.24386405 L12.490565,2.24770719 L12.3573165,1.83264837 L12.2214805,2.24770719 Z M9.75056059,2.24770719 L9.31329832,2.24386405 L9.66776537,2.49879216 L9.53192946,2.91000784 L9.88510283,2.65507974 L10.2382762,2.91000784 L10.1024403,2.49879216 L10.4569073,2.24386405 L10.0196451,2.24770719 L9.88510283,1.83264837 L9.75056059,2.24770719 Z M7.27964065,2.24770719 L6.84237837,2.24386405 L7.19684542,2.49879216 L7.05971583,2.91000784 L7.41288921,2.65507974 L7.76735626,2.91000784 L7.63022667,2.49879216 L7.98469372,2.24386405 L7.54872512,2.24770719 L7.41288921,1.83264837 L7.27964065,2.24770719 Z M4.8087207,2.24770719 L4.37016475,2.24386405 L4.7246318,2.49879216 L4.58879589,2.91000784 L4.94196926,2.65507974 L5.29514264,2.91000784 L5.15930672,2.49879216 L5.5124801,2.24386405 L5.0765115,2.24770719 L4.94196926,1.83264837 L4.8087207,2.24770719 Z M2.33650708,2.24770719 L1.8992448,2.24386405 L2.25371185,2.49879216 L2.11787594,2.91000784 L2.47104931,2.65507974 L2.82422269,2.91000784 L2.68838678,2.49879216 L3.04285383,2.24386405 L2.60429788,2.24770719 L2.47104931,1.83264837 L2.33650708,2.24770719 Z M13.4582342,3.28151111 L13.0209719,3.28151111 L13.375439,3.53515817 L13.2396031,3.94637386 L13.5927764,3.6927268 L13.9459498,3.94637386 L13.8088202,3.53515817 L14.1632873,3.28151111 L13.726025,3.28151111 L13.5927764,2.87029542 L13.4582342,3.28151111 Z M10.9860206,3.28151111 L10.550052,3.28151111 L10.9032253,3.53515817 L10.7673894,3.94637386 L11.1205628,3.6927268 L11.4737362,3.94637386 L11.3379003,3.53515817 L11.6923673,3.28151111 L11.2538114,3.28151111 L11.1205628,2.87029542 L10.9860206,3.28151111 Z M8.51510062,3.28151111 L8.07783835,3.28151111 L8.4323054,3.53515817 L8.29646948,3.94637386 L8.64834918,3.6927268 L9.00281623,3.94637386 L8.86568664,3.53515817 L9.22015369,3.28151111 L8.78289142,3.28151111 L8.64834918,2.87029542 L8.51510062,3.28151111 Z M6.04418067,3.28151111 L5.6069184,3.28151111 L5.96009177,3.53515817 L5.82554954,3.94637386 L6.17742923,3.6927268 L6.53189628,3.94637386 L6.39606037,3.53515817 L6.74923375,3.28151111 L6.31197147,3.28151111 L6.17742923,2.87029542 L6.04418067,3.28151111 Z M3.57326073,3.28151111 L3.13599845,3.28151111 L3.48917183,3.53515817 L3.35333591,3.94637386 L3.70650929,3.6927268 L4.05968266,3.94637386 L3.92384675,3.53515817 L4.27702012,3.28151111 L3.84105153,3.28151111 L3.70650929,2.87029542 L3.57326073,3.28151111 Z M1.1010471,3.28151111 L0.66378483,3.28151111 L1.0169582,3.53515817 L0.881122291,3.94637386 L1.23558934,3.6927268 L1.58746904,3.94637386 L1.4529268,3.53515817 L1.80739385,3.28151111 L1.3688379,3.28151111 L1.23558934,2.87029542 L1.1010471,3.28151111 Z M12.2214805,4.31787712 L11.7855119,4.31787712 L12.1386853,4.57280523 L12.0041431,4.98402092 L12.3573165,4.72909281 L12.7091962,4.98402092 L12.5733602,4.57280523 L12.9278273,4.31787712 L12.490565,4.31787712 L12.3573165,3.90666144 L12.2214805,4.31787712 Z M9.75056059,4.31787712 L9.31329832,4.31787712 L9.66776537,4.57280523 L9.53192946,4.98402092 L9.88510283,4.72909281 L10.2382762,4.98402092 L10.1024403,4.57280523 L10.4569073,4.31787712 L10.0196451,4.31787712 L9.88510283,3.90666144 L9.75056059,4.31787712 Z M7.27964065,4.31787712 L6.84237837,4.31787712 L7.19684542,4.57280523 L7.05971583,4.98402092 L7.41288921,4.72909281 L7.76735626,4.98402092 L7.63022667,4.57280523 L7.98469372,4.31787712 L7.54872512,4.31787712 L7.41288921,3.90666144 L7.27964065,4.31787712 Z M4.8087207,4.31787712 L4.37016475,4.31787712 L4.7246318,4.57280523 L4.58879589,4.98402092 L4.94196926,4.72909281 L5.29514264,4.98402092 L5.15930672,4.57280523 L5.5124801,4.31787712 L5.0765115,4.31787712 L4.94196926,3.90666144 L4.8087207,4.31787712 Z M2.33650708,4.31787712 L1.8992448,4.31787712 L2.25371185,4.57280523 L2.11787594,4.98402092 L2.47104931,4.72909281 L2.82422269,4.98402092 L2.68838678,4.57280523 L3.04285383,4.31787712 L2.60429788,4.31787712 L2.47104931,3.90666144 L2.33650708,4.31787712 Z M13.4582342,5.35552418 L13.0209719,5.35424314 L13.375439,5.60917124 L13.2396031,6.02038693 L13.5927764,5.76545882 L13.9459498,6.02038693 L13.8088202,5.60917124 L14.1632873,5.35424314 L13.726025,5.35552418 L13.5927764,4.9443085 L13.4582342,5.35552418 Z M10.9860206,5.35552418 L10.550052,5.35424314 L10.9032253,5.60917124 L10.7673894,6.02038693 L11.1205628,5.76545882 L11.4737362,6.02038693 L11.3379003,5.60917124 L11.6923673,5.35424314 L11.2538114,5.35552418 L11.1205628,4.9443085 L10.9860206,5.35552418 Z M8.51510062,5.35552418 L8.07783835,5.35424314 L8.4323054,5.60917124 L8.29646948,6.02038693 L8.64834918,5.76545882 L9.00281623,6.02038693 L8.86568664,5.60917124 L9.22015369,5.35424314 L8.78289142,5.35552418 L8.64834918,4.9443085 L8.51510062,5.35552418 Z M6.04418067,5.35552418 L5.6069184,5.35424314 L5.96009177,5.60917124 L5.82554954,6.02038693 L6.17742923,5.76545882 L6.53189628,6.02038693 L6.39606037,5.60917124 L6.74923375,5.35424314 L6.31197147,5.35552418 L6.17742923,4.9443085 L6.04418067,5.35552418 Z M3.57326073,5.35552418 L3.13599845,5.35424314 L3.48917183,5.60917124 L3.35333591,6.02038693 L3.70650929,5.76545882 L4.05968266,6.02038693 L3.92384675,5.60917124 L4.27702012,5.35424314 L3.84105153,5.35552418 L3.70650929,4.9443085 L3.57326073,5.35552418 Z M1.1010471,5.35552418 L0.66378483,5.35424314 L1.0169582,5.60917124 L0.881122291,6.02038693 L1.23558934,5.76545882 L1.58746904,6.02038693 L1.4529268,5.60917124 L1.80739385,5.35424314 L1.3688379,5.35552418 L1.23558934,4.9443085 L1.1010471,5.35552418 Z M12.2214805,6.3918902 L11.7855119,6.3918902 L12.1386853,6.64553725 L12.0041431,7.05803399 L12.3573165,6.80310588 L12.7091962,7.05803399 L12.5733602,6.64553725 L12.9278273,6.3918902 L12.490565,6.3918902 L12.3573165,5.98067451 L12.2214805,6.3918902 Z M9.75056059,6.3918902 L9.31329832,6.3918902 L9.66776537,6.64553725 L9.53192946,7.05803399 L9.88510283,6.80310588 L10.2382762,7.05803399 L10.1024403,6.64553725 L10.4569073,6.3918902 L10.0196451,6.3918902 L9.88510283,5.98067451 L9.75056059,6.3918902 Z M7.27964065,6.3918902 L6.84237837,6.3918902 L7.19684542,6.64553725 L7.05971583,7.05803399 L7.41288921,6.80310588 L7.76735626,7.05803399 L7.63022667,6.64553725 L7.98469372,6.3918902 L7.54872512,6.3918902 L7.41288921,5.98067451 L7.27964065,6.3918902 Z M4.8087207,6.3918902 L4.37016475,6.3918902 L4.7246318,6.64553725 L4.58879589,7.05803399 L4.94196926,6.80310588 L5.29514264,7.05803399 L5.15930672,6.64553725 L5.5124801,6.3918902 L5.0765115,6.3918902 L4.94196926,5.98067451 L4.8087207,6.3918902 Z M2.33650708,6.3918902 L1.8992448,6.3918902 L2.25371185,6.64553725 L2.11787594,7.05803399 L2.47104931,6.80310588 L2.82422269,7.05803399 L2.68838678,6.64553725 L3.04285383,6.3918902 L2.60429788,6.3918902 L2.47104931,5.98067451 L2.33650708,6.3918902 Z M13.4582342,7.42953725 L13.0209719,7.42953725 L13.375439,7.68190327 L13.2396031,8.0944 L13.5927764,7.8394719 L13.9459498,8.0944 L13.8088202,7.68190327 L14.1632873,7.42953725 L13.726025,7.42953725 L13.5927764,7.01832157 L13.4582342,7.42953725 Z M10.9860206,7.42953725 L10.550052,7.42953725 L10.9032253,7.68190327 L10.7673894,8.0944 L11.1205628,7.8394719 L11.4737362,8.0944 L11.3379003,7.68190327 L11.6923673,7.42953725 L11.2538114,7.42953725 L11.1205628,7.01832157 L10.9860206,7.42953725 Z M8.51510062,7.42953725 L8.07783835,7.42953725 L8.4323054,7.68190327 L8.29646948,8.0944 L8.64834918,7.8394719 L9.00281623,8.0944 L8.86568664,7.68190327 L9.22015369,7.42953725 L8.78289142,7.42953725 L8.64834918,7.01832157 L8.51510062,7.42953725 Z M6.04418067,7.42953725 L5.6069184,7.42953725 L5.96009177,7.68190327 L5.82554954,8.0944 L6.17742923,7.8394719 L6.53189628,8.0944 L6.39606037,7.68190327 L6.74923375,7.42953725 L6.31197147,7.42953725 L6.17742923,7.01832157 L6.04418067,7.42953725 Z M3.57326073,7.42953725 L3.13599845,7.42953725 L3.48917183,7.68190327 L3.35333591,8.0944 L3.70650929,7.8394719 L4.05968266,8.0944 L3.92384675,7.68190327 L4.27702012,7.42953725 L3.84105153,7.42953725 L3.70650929,7.01832157 L3.57326073,7.42953725 Z M1.1010471,7.42953725 L0.66378483,7.42953725 L1.0169582,7.68190327 L0.881122291,8.0944 L1.23558934,7.8394719 L1.58746904,8.0944 L1.4529268,7.68190327 L1.80739385,7.42953725 L1.3688379,7.42953725 L1.23558934,7.01832157 L1.1010471,7.42953725 Z M12.2214805,8.46718431 L11.7855119,8.46718431 L12.1386853,8.71955033 L12.0041431,9.1333281 L12.3573165,8.87583791 L12.7091962,9.1333281 L12.5733602,8.71955033 L12.9278273,8.46718431 L12.490565,8.46718431 L12.3573165,8.05596863 L12.2214805,8.46718431 Z M9.75056059,8.46718431 L9.31329832,8.46718431 L9.66776537,8.71955033 L9.53192946,9.1333281 L9.88510283,8.87583791 L10.2382762,9.1333281 L10.1024403,8.71955033 L10.4569073,8.46718431 L10.0196451,8.46718431 L9.88510283,8.05596863 L9.75056059,8.46718431 Z M7.27964065,8.46718431 L6.84237837,8.46718431 L7.19684542,8.71955033 L7.05971583,9.1333281 L7.41288921,8.87583791 L7.76735626,9.1333281 L7.63022667,8.71955033 L7.98469372,8.46718431 L7.54872512,8.46718431 L7.41288921,8.05596863 L7.27964065,8.46718431 Z M4.8087207,8.46718431 L4.37016475,8.46718431 L4.7246318,8.71955033 L4.58879589,9.1333281 L4.94196926,8.87583791 L5.29514264,9.1333281 L5.15930672,8.71955033 L5.5124801,8.46718431 L5.0765115,8.46718431 L4.94196926,8.05596863 L4.8087207,8.46718431 Z M2.33650708,8.46718431 L1.8992448,8.46718431 L2.25371185,8.71955033 L2.11787594,9.1333281 L2.47104931,8.87583791 L2.82422269,9.1333281 L2.68838678,8.71955033 L3.04285383,8.46718431 L2.60429788,8.46718431 L2.47104931,8.05596863 L2.33650708,8.46718431 Z M13.4582342,9.50355033 L13.0209719,9.50355033 L13.375439,9.75719739 L13.2396031,10.1684131 L13.5927764,9.91348497 L13.9459498,10.1684131 L13.8088202,9.75719739 L14.1632873,9.50355033 L13.726025,9.50355033 L13.5927764,9.09233464 L13.4582342,9.50355033 Z M10.9860206,9.50355033 L10.550052,9.50355033 L10.9032253,9.75719739 L10.7673894,10.1684131 L11.1205628,9.91348497 L11.4737362,10.1684131 L11.3379003,9.75719739 L11.6923673,9.50355033 L11.2538114,9.50355033 L11.1205628,9.09233464 L10.9860206,9.50355033 Z M8.51510062,9.50355033 L8.07783835,9.50355033 L8.4323054,9.75719739 L8.29646948,10.1684131 L8.64834918,9.91348497 L9.00281623,10.1684131 L8.86568664,9.75719739 L9.22015369,9.50355033 L8.78289142,9.50355033 L8.64834918,9.09233464 L8.51510062,9.50355033 Z M6.04418067,9.50355033 L5.6069184,9.50355033 L5.96009177,9.75719739 L5.82554954,10.1684131 L6.17742923,9.91348497 L6.53189628,10.1684131 L6.39606037,9.75719739 L6.74923375,9.50355033 L6.31197147,9.50355033 L6.17742923,9.09233464 L6.04418067,9.50355033 Z M3.57326073,9.50355033 L3.13599845,9.50355033 L3.48917183,9.75719739 L3.35333591,10.1684131 L3.70650929,9.91348497 L4.05968266,10.1684131 L3.92384675,9.75719739 L4.27702012,9.50355033 L3.84105153,9.50355033 L3.70650929,9.09233464 L3.57326073,9.50355033 Z M1.1010471,9.50355033 L0.66378483,9.50355033 L1.0169582,9.75719739 L0.881122291,10.1684131 L1.23558934,9.91348497 L1.58746904,10.1684131 L1.4529268,9.75719739 L1.80739385,9.50355033 L1.3688379,9.50355033 L1.23558934,9.09233464 L1.1010471,9.50355033 Z" id="Fill-4" fill="#F4F4F4"></path>
                </g>
            </g>
        </g>
    </g>
</svg>